<svg width="233" height="260" viewBox="0 0 233 260" fill="#353535" xmlns="http://www.w3.org/2000/svg">
<path d="M124.297 23.2763V122.766H96.7242L58.9181 77.5694V122.766H26.2286V23.2763H53.8015L91.6076 68.4731V23.2763H124.297Z" fill="inherit"/>
<path d="M60.1498 160.958H31.0135V134.949H122.828V160.958H93.6921V234.438H60.1498V160.958Z" fill="inherit"/>
<path d="M186.779 125.04C176.262 125.04 166.787 122.861 158.354 118.502C149.921 114.049 143.288 107.89 138.456 100.026C133.718 92.0664 131.349 83.0649 131.349 73.0212C131.349 62.9775 133.718 54.0234 138.456 46.1589C143.288 38.1998 149.921 32.0409 158.354 27.6823C166.787 23.2289 176.262 21.0022 186.779 21.0022C196.444 21.0022 205.067 22.7078 212.647 26.1189C220.227 29.5299 226.481 34.457 231.408 40.9002L210.231 59.8033C204.072 52.0336 196.823 48.1487 188.485 48.1487C181.473 48.1487 175.836 50.4228 171.572 54.9709C167.308 59.4243 165.176 65.441 165.176 73.0212C165.176 80.6014 167.308 86.6655 171.572 91.2136C175.836 95.667 181.473 97.8937 188.485 97.8937C196.823 97.8937 204.072 94.0088 210.231 86.2391L231.408 105.142C226.481 111.585 220.227 116.512 212.647 119.924C205.067 123.335 196.444 125.04 186.779 125.04Z" fill="inherit"/>
<path d="M186.779 236.712C176.262 236.712 166.787 234.533 158.354 230.175C149.921 225.721 143.288 219.562 138.456 211.698C133.718 203.739 131.349 194.737 131.349 184.694C131.349 174.65 133.718 165.696 138.456 157.831C143.288 149.872 149.921 143.713 158.354 139.355C166.787 134.901 176.262 132.675 186.779 132.675C196.444 132.675 205.067 134.38 212.647 137.791C220.227 141.202 226.481 146.129 231.408 152.572L210.231 171.476C204.072 163.706 196.823 159.821 188.485 159.821C181.473 159.821 175.836 162.095 171.572 166.643C167.308 171.097 165.176 177.113 165.176 184.694C165.176 192.274 167.308 198.338 171.572 202.886C175.836 207.339 181.473 209.566 188.485 209.566C196.823 209.566 204.072 205.681 210.231 197.911L231.408 216.815C226.481 223.258 220.227 228.185 212.647 231.596C205.067 235.007 196.444 236.712 186.779 236.712Z" fill="inherit"/>
<path fill-rule="evenodd" clip-rule="evenodd" d="M0.5979 0.0620117H232.267V14.2748H14.8107V245.47H232.267V259.683H0.5979V0.0620117Z" fill="inherit"/>
</svg>
