<svg width="275" height="353" viewBox="0 0 275 353" fill="#353535" xmlns="http://www.w3.org/2000/svg">
  <path d="M12.9428 1.08469V15.1967H10.2615L3.22561 6.62871V15.1967H0V1.08469H2.70145L9.71714 9.65271V1.08469H12.9428Z"
    fill="inherit" />
  <path
    d="M27.7124 12.5759V15.1967H16.7856V1.08469H27.4503V3.7055H20.0314V6.76983H26.5834V9.30999H20.0314V12.5759H27.7124Z"
    fill="inherit" />
  <path
    d="M51.9474 1.08469L47.3308 15.1967H43.8229L40.7183 5.64086L37.5128 15.1967H34.0251L29.3883 1.08469H32.7752L35.9605 11.0034L39.2869 1.08469H42.3109L45.5365 11.0841L48.8226 1.08469H51.9474Z"
    fill="inherit" />
  <path
    d="M67.537 15.4386C66.0989 15.4386 64.7952 15.1295 63.6259 14.5113C62.4701 13.8796 61.5561 13.0127 60.8841 11.9106C60.2256 10.7951 59.8963 9.53848 59.8963 8.14071C59.8963 6.74295 60.2256 5.49302 60.8841 4.39094C61.5561 3.27542 62.4701 2.40854 63.6259 1.7903C64.7952 1.15861 66.1056 0.842773 67.5571 0.842773C68.7802 0.842773 69.8822 1.05781 70.8634 1.48789C71.8579 1.91798 72.6912 2.53622 73.3632 3.34262L71.2666 5.27798C70.3123 4.1759 69.1296 3.62486 67.7184 3.62486C66.8448 3.62486 66.0653 3.81974 65.3798 4.2095C64.6944 4.58582 64.1568 5.1167 63.767 5.80215C63.3907 6.48759 63.2025 7.26711 63.2025 8.14071C63.2025 9.01431 63.3907 9.79384 63.767 10.4793C64.1568 11.1647 64.6944 11.7023 65.3798 12.0921C66.0653 12.4684 66.8448 12.6566 67.7184 12.6566C69.1296 12.6566 70.3123 12.0988 71.2666 10.9833L73.3632 12.9186C72.6912 13.7385 71.8579 14.3634 70.8634 14.7935C69.8688 15.2236 68.76 15.4386 67.537 15.4386Z"
    fill="inherit" />
  <path
    d="M85.0641 15.1967L82.3425 11.2655H79.3386V15.1967H76.0727V1.08469H82.1812C83.4311 1.08469 84.513 1.29301 85.4269 1.70965C86.3543 2.1263 87.0666 2.71766 87.5639 3.48374C88.0612 4.24982 88.3098 5.15702 88.3098 6.20535C88.3098 7.25367 88.0545 8.16087 87.5438 8.92695C87.0465 9.67959 86.3342 10.2575 85.4068 10.6607L88.5719 15.1967H85.0641ZM85.0036 6.20535C85.0036 5.41238 84.7482 4.80758 84.2375 4.39094C83.7268 3.96086 82.9809 3.74582 81.9997 3.74582H79.3386V8.66487H81.9997C82.9809 8.66487 83.7268 8.44983 84.2375 8.01975C84.7482 7.58967 85.0036 6.98487 85.0036 6.20535Z"
    fill="inherit" />
  <path
    d="M102.328 12.5759V15.1967H91.4014V1.08469H102.066V3.7055H94.6472V6.76983H101.199V9.30999H94.6472V12.5759H102.328Z"
    fill="inherit" />
  <path
    d="M114.725 12.1727H108.173L106.923 15.1967H103.576L109.866 1.08469H113.092L119.402 15.1967H115.974L114.725 12.1727ZM113.696 9.69304L111.459 4.29014L109.221 9.69304H113.696Z"
    fill="inherit" />
  <path d="M123.584 3.74582H119.068V1.08469H131.366V3.74582H126.85V15.1967H123.584V3.74582Z" fill="inherit" />
  <path d="M133.627 1.08469H136.893V15.1967H133.627V1.08469Z" fill="inherit" />
  <path
    d="M147.581 15.4386C146.116 15.4386 144.792 15.1228 143.609 14.4911C142.44 13.8594 141.519 12.9926 140.847 11.8905C140.189 10.775 139.859 9.52503 139.859 8.14071C139.859 6.75639 140.189 5.51318 140.847 4.4111C141.519 3.29558 142.44 2.42198 143.609 1.7903C144.792 1.15861 146.116 0.842773 147.581 0.842773C149.045 0.842773 150.363 1.15861 151.532 1.7903C152.701 2.42198 153.622 3.29558 154.294 4.4111C154.966 5.51318 155.302 6.75639 155.302 8.14071C155.302 9.52503 154.966 10.775 154.294 11.8905C153.622 12.9926 152.701 13.8594 151.532 14.4911C150.363 15.1228 149.045 15.4386 147.581 15.4386ZM147.581 12.6566C148.414 12.6566 149.166 12.4684 149.838 12.0921C150.51 11.7023 151.035 11.1647 151.411 10.4793C151.801 9.79384 151.996 9.01431 151.996 8.14071C151.996 7.26711 151.801 6.48759 151.411 5.80215C151.035 5.1167 150.51 4.58582 149.838 4.2095C149.166 3.81974 148.414 3.62486 147.581 3.62486C146.747 3.62486 145.995 3.81974 145.323 4.2095C144.651 4.58582 144.12 5.1167 143.73 5.80215C143.354 6.48759 143.165 7.26711 143.165 8.14071C143.165 9.01431 143.354 9.79384 143.73 10.4793C144.12 11.1647 144.651 11.7023 145.323 12.0921C145.995 12.4684 146.747 12.6566 147.581 12.6566Z"
    fill="inherit" />
  <path
    d="M171.203 1.08469V15.1967H168.522L161.486 6.62871V15.1967H158.26V1.08469H160.962L167.977 9.65271V1.08469H171.203Z"
    fill="inherit" />
  <path d="M76.531 340.867H72.0151V338.206H84.3127V340.867H79.7969V352.318H76.531V340.867Z" fill="inherit" />
  <path
    d="M95.5654 352.318L92.8438 348.386H89.8399V352.318H86.574V338.206H92.6825C93.9324 338.206 95.0143 338.414 95.9282 338.83C96.8556 339.247 97.5679 339.838 98.0652 340.605C98.5625 341.371 98.8111 342.278 98.8111 343.326C98.8111 344.374 98.5558 345.282 98.045 346.048C97.5478 346.8 96.8354 347.378 95.9081 347.782L99.0732 352.318H95.5654ZM95.5049 343.326C95.5049 342.533 95.2495 341.928 94.7388 341.512C94.2281 341.082 93.4822 340.867 92.501 340.867H89.8399V345.786H92.501C93.4822 345.786 94.2281 345.571 94.7388 345.141C95.2495 344.71 95.5049 344.106 95.5049 343.326Z"
    fill="inherit" />
  <path
    d="M111.196 349.294H104.644L103.395 352.318H100.048L106.338 338.206H109.564L115.874 352.318H112.446L111.196 349.294ZM110.168 346.814L107.931 341.411L105.693 346.814H110.168Z"
    fill="inherit" />
  <path d="M117.842 338.206H121.108V352.318H117.842V338.206Z" fill="inherit" />
  <path
    d="M137.904 338.206V352.318H135.222L128.186 343.75V352.318H124.961V338.206H127.662L134.678 346.774V338.206H137.904Z"
    fill="inherit" />
  <path d="M141.746 338.206H145.012V352.318H141.746V338.206Z" fill="inherit" />
  <path
    d="M161.808 338.206V352.318H159.127L152.091 343.75V352.318H148.865V338.206H151.567L158.583 346.774V338.206H161.808Z"
    fill="inherit" />
  <path
    d="M175.187 345.04H178.17V350.765C177.404 351.343 176.517 351.787 175.509 352.096C174.501 352.405 173.487 352.559 172.465 352.559C171 352.559 169.683 352.25 168.514 351.632C167.344 351 166.424 350.134 165.752 349.031C165.093 347.916 164.764 346.659 164.764 345.262C164.764 343.864 165.093 342.614 165.752 341.512C166.424 340.396 167.351 339.529 168.534 338.911C169.717 338.279 171.047 337.964 172.526 337.964C173.762 337.964 174.884 338.172 175.892 338.589C176.9 339.005 177.747 339.61 178.432 340.403L176.336 342.338C175.328 341.277 174.111 340.746 172.687 340.746C171.786 340.746 170.987 340.934 170.288 341.31C169.589 341.686 169.045 342.217 168.655 342.903C168.265 343.588 168.07 344.374 168.07 345.262C168.07 346.135 168.265 346.915 168.655 347.6C169.045 348.286 169.582 348.823 170.268 349.213C170.967 349.589 171.759 349.777 172.647 349.777C173.587 349.777 174.434 349.576 175.187 349.173V345.04Z"
    fill="inherit" />
  <path
    d="M194.675 352.559C193.237 352.559 191.933 352.25 190.764 351.632C189.608 351 188.694 350.134 188.022 349.031C187.364 347.916 187.035 346.659 187.035 345.262C187.035 343.864 187.364 342.614 188.022 341.512C188.694 340.396 189.608 339.529 190.764 338.911C191.933 338.279 193.244 337.964 194.695 337.964C195.918 337.964 197.02 338.179 198.002 338.609C198.996 339.039 199.829 339.657 200.501 340.463L198.405 342.399C197.451 341.297 196.268 340.746 194.857 340.746C193.983 340.746 193.203 340.941 192.518 341.33C191.833 341.707 191.295 342.238 190.905 342.923C190.529 343.608 190.341 344.388 190.341 345.262C190.341 346.135 190.529 346.915 190.905 347.6C191.295 348.286 191.833 348.823 192.518 349.213C193.203 349.589 193.983 349.777 194.857 349.777C196.268 349.777 197.451 349.22 198.405 348.104L200.501 350.039C199.829 350.859 198.996 351.484 198.002 351.914C197.007 352.344 195.898 352.559 194.675 352.559Z"
    fill="inherit" />
  <path
    d="M214.138 349.697V352.318H203.211V338.206H213.876V340.826H206.457V343.891H213.009V346.431H206.457V349.697H214.138Z"
    fill="inherit" />
  <path
    d="M230.183 338.206V352.318H227.502L220.466 343.75V352.318H217.24V338.206H219.942L226.957 346.774V338.206H230.183Z"
    fill="inherit" />
  <path d="M236.949 340.867H232.433V338.206H244.731V340.867H240.215V352.318H236.949V340.867Z" fill="inherit" />
  <path
    d="M257.919 349.697V352.318H246.992V338.206H257.657V340.826H250.238V343.891H256.79V346.431H250.238V349.697H257.919Z"
    fill="inherit" />
  <path
    d="M270.013 352.318L267.291 348.386H264.287V352.318H261.021V338.206H267.13C268.38 338.206 269.462 338.414 270.376 338.83C271.303 339.247 272.015 339.838 272.513 340.605C273.01 341.371 273.259 342.278 273.259 343.326C273.259 344.374 273.003 345.282 272.492 346.048C271.995 346.8 271.283 347.378 270.356 347.782L273.521 352.318H270.013ZM269.952 343.326C269.952 342.533 269.697 341.928 269.186 341.512C268.676 341.082 267.93 340.867 266.948 340.867H264.287V345.786H266.948C267.93 345.786 268.676 345.571 269.186 345.141C269.697 344.71 269.952 344.106 269.952 343.326Z"
    fill="inherit" />
  <path
    d="M146.549 51.0368V168.637H113.957L69.2686 115.213V168.637H30.6285V51.0368H63.2206L107.909 104.461V51.0368H146.549Z"
    fill="inherit" />
  <path d="M70.7246 213.781H36.2845V183.037H144.813V213.781H110.373V300.637H70.7246V213.781Z" fill="inherit" />
  <path
    d="M220.405 171.325C207.973 171.325 196.773 168.749 186.805 163.597C176.837 158.333 168.997 151.053 163.285 141.757C157.685 132.349 154.885 121.709 154.885 109.837C154.885 97.9649 157.685 87.3809 163.285 78.0848C168.997 68.6768 176.837 61.3968 186.805 56.2448C196.773 50.9808 207.973 48.3488 220.405 48.3488C231.829 48.3488 242.021 50.3648 250.981 54.3968C259.941 58.4288 267.333 64.2528 273.157 71.8688L248.125 94.2129C240.845 85.0289 232.277 80.4369 222.421 80.4369C214.133 80.4369 207.469 83.1249 202.429 88.5009C197.389 93.7649 194.869 100.877 194.869 109.837C194.869 118.797 197.389 125.965 202.429 131.341C207.469 136.605 214.133 139.237 222.421 139.237C232.277 139.237 240.845 134.645 248.125 125.461L273.157 147.805C267.333 155.421 259.941 161.245 250.981 165.277C242.021 169.309 231.829 171.325 220.405 171.325Z"
    fill="inherit" />
  <path
    d="M220.405 303.325C207.973 303.325 196.773 300.749 186.805 295.597C176.837 290.333 168.997 283.053 163.285 273.757C157.685 264.349 154.885 253.709 154.885 241.837C154.885 229.965 157.685 219.381 163.285 210.085C168.997 200.677 176.837 193.397 186.805 188.245C196.773 182.981 207.973 180.349 220.405 180.349C231.829 180.349 242.021 182.365 250.981 186.397C259.941 190.429 267.333 196.253 273.157 203.869L248.125 226.213C240.845 217.029 232.277 212.437 222.421 212.437C214.133 212.437 207.469 215.125 202.429 220.501C197.389 225.765 194.869 232.877 194.869 241.837C194.869 250.797 197.389 257.965 202.429 263.341C207.469 268.605 214.133 271.237 222.421 271.237C232.277 271.237 240.845 266.645 248.125 257.461L273.157 279.805C267.333 287.421 259.941 293.245 250.981 297.277C242.021 301.309 231.829 303.325 220.405 303.325Z"
    fill="inherit" />
  <path fill-rule="evenodd" clip-rule="evenodd"
    d="M0.332207 23.5967H274.173V40.3968H17.1322V313.677H274.173V330.477H0.332207V23.5967Z" fill="inherit" />
</svg>