<?xml version="1.0" standalone="no"?>
<!DOCTYPE svg PUBLIC "-//W3C//DTD SVG 20010904//EN"
 "http://www.w3.org/TR/2001/REC-SVG-20010904/DTD/svg10.dtd">
<svg version="1.0" xmlns="http://www.w3.org/2000/svg"
 width="700.000000pt" height="700.000000pt" viewBox="0 0 700.000000 700.000000"
 preserveAspectRatio="xMidYMid meet">
<metadata>
Created by potrace 1.11, written by Peter Selinger 2001-2013
</metadata>
<g transform="translate(0.000000,700.000000) scale(0.100000,-0.100000)"
fill="#000000" stroke="none">
<path d="M1725 5000 c-334 -59 -605 -192 -838 -411 -144 -135 -237 -259 -325
-435 -141 -281 -189 -607 -131 -894 36 -177 164 -479 277 -651 l50 -76 -165
-264 c-91 -145 -168 -270 -170 -276 -4 -10 472 -13 2361 -13 2554 0 2429 -2
2638 51 379 96 731 349 940 675 49 76 125 238 156 330 100 299 100 629 0 928
-31 92 -107 254 -156 330 -209 326 -561 579 -940 675 -206 53 -145 51 -1934
50 -1545 -1 -1670 -2 -1763 -19z m2145 -894 c77 -26 184 -93 233 -144 l29 -30
-77 -86 -77 -87 -49 46 c-171 160 -455 120 -556 -78 -73 -144 -40 -336 75
-438 68 -59 139 -82 242 -77 99 5 169 34 235 99 l41 39 79 -81 80 -81 -58 -53
c-122 -111 -262 -161 -432 -152 -170 9 -288 61 -403 178 -154 157 -195 432
-97 647 71 156 224 278 397 317 96 22 245 14 338 -19z m-1800 -358 l275 -361
3 362 2 361 125 0 125 0 0 -560 0 -561 -127 3 -126 3 -263 345 c-144 189 -267
346 -273 348 -8 3 -11 -98 -11 -347 l0 -351 -120 0 -120 0 0 560 0 560 118 0
117 0 275 -362z m3155 347 c200 -42 277 -142 278 -355 0 -84 -4 -116 -22 -161
-27 -70 -76 -128 -135 -160 -25 -13 -46 -28 -46 -32 0 -4 61 -93 135 -198 74
-104 135 -192 135 -194 0 -3 -67 -5 -148 -5 l-148 0 -124 180 -125 180 -92 0
-93 0 0 -180 0 -180 -120 0 -120 0 0 560 0 560 278 0 c206 0 295 -4 347 -15z"/>
<path d="M4848 3905 c-5 -5 -8 -85 -8 -178 l0 -169 148 4 c168 5 211 18 247
79 28 48 28 156 -1 196 -37 50 -76 62 -235 69 -79 4 -147 3 -151 -1z"/>
</g>
</svg>
